<svg xmlns="http://www.w3.org/2000/svg" xmlns:xlink="http://www.w3.org/1999/xlink" width="3000" height="1200" viewBox="0 0 3000 1200" fill="none">
<rect x="0" y="0" width="3000" height="1200"   fill="#1974D2" >
</rect>
<rect  x="357" y="457" width="286" height="286" rx="30"    fill="#FFFFFF" >
</rect>
<rect  x="372" y="472" width="256" height="256" rx="30"    fill="url(#linear_fill_2_3_0)" >
</rect>
<path     fill="#FFFFFF"  d="M559 575C564.6 575 567.4 575 569.54 576.09Q570.241 576.447 570.878 576.91Q571.515 577.372 572.071 577.929Q572.628 578.485 573.09 579.122Q573.553 579.759 573.91 580.46C575 582.6 575 585.4 575 591L575 651L525 651L475 651L475 613L475 591C475 585.4 475 582.6 476.09 580.46Q476.447 579.759 476.91 579.122Q477.372 578.485 477.929 577.929Q478.485 577.372 479.122 576.91Q479.759 576.447 480.46 576.09C482.6 575 485.4 575 491 575L559 575Z">
</path>
<g filter="url(#filter_2_6)">
<path     fill="#FFFFFF" fill-opacity="0.8" d="M525 651L575 651L575 663L575 663C575 664.86 575 665.79 574.88 666.56Q574.818 666.948 574.727 667.33Q574.635 667.712 574.513 668.085Q574.392 668.459 574.242 668.822Q574.091 669.184 573.913 669.534Q573.735 669.884 573.529 670.219Q573.324 670.554 573.093 670.872Q572.862 671.189 572.607 671.488Q572.352 671.787 572.075 672.065Q571.797 672.342 571.498 672.597Q571.199 672.852 570.882 673.083Q570.564 673.314 570.229 673.519Q569.894 673.725 569.544 673.903Q569.194 674.081 568.831 674.232Q568.469 674.382 568.095 674.503Q567.722 674.625 567.34 674.717Q566.958 674.808 566.57 674.87C565.79 675 564.86 675 563 675L487 675C485.14 675 484.21 675 483.44 674.88Q483.052 674.818 482.67 674.727Q482.288 674.635 481.915 674.513Q481.541 674.392 481.178 674.242Q480.816 674.091 480.466 673.913Q480.116 673.735 479.781 673.529Q479.446 673.324 479.128 673.093Q478.81 672.862 478.512 672.607Q478.213 672.352 477.935 672.075Q477.658 671.797 477.403 671.498Q477.148 671.199 476.917 670.882Q476.686 670.564 476.481 670.229Q476.275 669.894 476.097 669.544Q475.919 669.194 475.768 668.832Q475.618 668.469 475.496 668.095Q475.375 667.722 475.283 667.34Q475.191 666.958 475.13 666.57C475 665.79 475 664.86 475 663L475 651L525 651Z">
</path>
</g>
<path d="M519.54 526.09C517.4 525 514.6 525 509 525L441 525C435.4 525 432.6 525 430.46 526.09Q429.759 526.447 429.122 526.91Q428.485 527.372 427.929 527.929Q427.372 528.485 426.91 529.122Q426.447 529.759 426.09 530.46C425 532.6 425 535.4 425 541L425 609C425 614.6 425 617.4 426.09 619.54Q426.447 620.241 426.91 620.878Q427.372 621.515 427.929 622.071Q428.485 622.628 429.122 623.09Q429.759 623.553 430.46 623.91C432.6 625 435.4 625 441 625L465 625L465 581C465 575.4 465 572.6 466.09 570.46Q466.447 569.759 466.91 569.122Q467.372 568.485 467.929 567.929Q468.485 567.372 469.122 566.91Q469.759 566.447 470.46 566.09C472.6 565 475.4 565 481 565L525 565L525 541C525 535.4 525 532.6 523.91 530.46Q523.553 529.759 523.09 529.122Q522.628 528.485 522.071 527.929Q521.515 527.372 520.878 526.91Q520.241 526.447 519.54 526.09Z" fill-rule="evenodd"  fill="#FFFFFF" >
</path>
<g >
<path     fill="#FFFFFF"  d="M1472.2 522.2L1531.6 668.6L1495.6 668.6L1484.4 639L1429 639L1418.2 668.6L1384.2 668.6L1442 522.2L1472.2 522.2ZM1473.6 610.4L1456.2 564.8L1439.6 610.4L1473.6 610.4ZM1648.8 565.2L1648.8 715L1616.2 715L1616.2 657Q1605.2 671.2 1585.8 671.2Q1572.8 671.2 1562.1 664.7Q1551.4 658.2 1545.1 645.9Q1538.8 633.6 1538.8 616.8Q1538.8 599.8 1545.1 587.5Q1551.4 575.2 1562.1 568.8Q1572.8 562.4 1585.8 562.4Q1596.2 562.4 1604.5 566.7Q1612.8 571 1618.4 579.6Q1619.6 571.2 1619.8 565.2L1648.8 565.2ZM1594.2 642.6Q1603.6 642.6 1609.9 636.2Q1616.2 629.8 1616.2 616.8Q1616.2 603.8 1609.9 596.8Q1603.6 589.8 1594.2 589.8Q1584.6 589.8 1578.5 597.2Q1572.4 604.6 1572.4 616.8Q1572.4 628.8 1578.4 635.7Q1584.4 642.6 1594.2 642.6ZM1739 565.2L1771.6 565.2L1771.6 668.6L1742.8 668.6L1742.4 664.2Q1741.6 655.2 1741 652.6Q1730.8 671.2 1708.6 671.2Q1691 671.2 1680.9 659.8Q1670.8 648.4 1670.8 626.2L1670.8 565.2L1703.4 565.2L1703.4 615.2Q1703.4 627.6 1706.9 635.1Q1710.4 642.6 1719.8 642.6Q1729 642.6 1734 635Q1739 627.4 1739 613.8L1739 565.2ZM1841 562.4Q1863.4 562.4 1875.6 574.9Q1887.8 587.4 1887.8 610.2L1887.8 668.6L1860.4 668.6Q1859.4 660.2 1859 657.4Q1854.2 664.4 1847.4 667.8Q1840.6 671.2 1830.2 671.2Q1819.2 671.2 1810.1 667.3Q1801 663.4 1795.7 656.1Q1790.4 648.8 1790.4 638.8Q1790.4 628.4 1796.3 620.5Q1802.2 612.6 1812.2 608.4Q1822.2 604.2 1834 604.2Q1845 604.2 1855.6 608Q1854.2 588.4 1837.8 588.4Q1824 588.4 1817.8 601.2L1794.8 587.8Q1800.6 576 1812.7 569.2Q1824.8 562.4 1841 562.4ZM1855.6 628.2Q1847.8 626.2 1840.8 626.2Q1832.6 626.2 1827.8 629.2Q1823 632.2 1823 637.2Q1823 641.8 1826.6 644.4Q1830.2 647 1835.8 647Q1843.4 647 1849.5 642.6Q1855.6 638.2 1855.6 630.8L1855.6 628.2ZM2015 522.2L2043 612.2L2068.8 522.2L2101.6 522.2L2055.4 668.6L2029.2 668.6L2000.8 581.2L1973.2 668.6L1947.2 668.6L1899.2 522.2L1934.4 522.2L1961.8 612.2L1988.2 522.2L2015 522.2ZM2131 554.2Q2123.2 554.2 2117.6 548.5Q2112 542.8 2112 535Q2112 527 2117.5 521.3Q2123 515.6 2131 515.6Q2138.6 515.6 2144.3 521.4Q2150 527.2 2150 535Q2150 542.8 2144.4 548.5Q2138.8 554.2 2131 554.2ZM2147.4 668.6L2114.8 668.6L2114.8 565.2L2147.4 565.2L2147.4 668.6ZM2242.4 516.4L2275 516.4L2275 668.6L2246 668.6Q2245.6 660 2244.6 654Q2238.8 662.6 2230.5 666.9Q2222.2 671.2 2212 671.2Q2199 671.2 2188.3 664.7Q2177.6 658.2 2171.3 645.9Q2165 633.6 2165 616.8Q2165 599.8 2171.3 587.5Q2177.6 575.2 2188.3 568.8Q2199 562.4 2212 562.4Q2231.4 562.4 2242.4 576.6L2242.4 516.4ZM2220.4 643.8Q2229.6 643.8 2236 636.8Q2242.4 629.8 2242.4 616.8Q2242.4 604 2236.1 597.5Q2229.8 591 2220.4 591Q2210.6 591 2204.6 597.9Q2198.6 604.8 2198.6 616.8Q2198.6 629 2204.6 636.4Q2210.6 643.8 2220.4 643.8ZM2402.8 565.2L2402.8 656.2Q2402.8 688.2 2386.3 702.8Q2369.8 717.4 2344.8 717.4Q2327 717.4 2313.8 709.9Q2300.6 702.4 2294.8 689.4L2319.4 675Q2327 689.4 2344.8 689.4Q2358.8 689.4 2364.2 681.8Q2369.6 674.2 2370.2 657.8Q2360 671.2 2341.8 671.2Q2328.8 671.2 2317.6 664.7Q2306.4 658.2 2299.6 645.9Q2292.8 633.6 2292.8 616.8Q2292.8 600 2299.6 587.6Q2306.4 575.2 2317.6 568.8Q2328.8 562.4 2341.8 562.4Q2362.2 562.4 2372.4 579.2Q2373.4 574 2373.8 565.2L2402.8 565.2ZM2348.2 643.8Q2357.4 643.8 2363.8 636.8Q2370.2 629.8 2370.2 616.8Q2370.2 604 2363.9 597.5Q2357.6 591 2348.2 591Q2338.4 591 2332.4 597.9Q2326.4 604.8 2326.4 616.8Q2326.4 629 2332.4 636.4Q2338.4 643.8 2348.2 643.8ZM2472.6 562.4Q2486.8 562.4 2497.7 568.5Q2508.6 574.6 2514.6 586Q2520.6 597.4 2520.6 612.6Q2520.6 619 2519.4 626.2L2453.2 626.2Q2455.4 634.8 2460.8 639.5Q2466.2 644.2 2474 644.2Q2480.4 644.2 2485.5 641.2Q2490.6 638.2 2493 632.4L2516.8 646.6Q2512.4 658.4 2500.2 664.8Q2488 671.2 2472.8 671.2Q2458.8 671.2 2446.5 665Q2434.2 658.8 2426.7 646.4Q2419.2 634 2419.2 616.4Q2419.2 599 2426.7 586.8Q2434.2 574.6 2446.4 568.5Q2458.6 562.4 2472.6 562.4ZM2471.6 588.4Q2464.8 588.4 2460.1 592.5Q2455.4 596.6 2453.2 604L2487.6 604Q2486.8 596.4 2482.4 592.4Q2478 588.4 2471.6 588.4ZM2616.6 661.2Q2605.4 671.2 2585 671.2Q2566.8 671.2 2555.8 661.7Q2544.8 652.2 2544.8 628L2544.8 592.6L2525.8 592.6L2525.8 565.2L2544.8 565.2L2544.8 532L2577.4 532L2577.4 565.2L2609 565.2L2609 592.6L2577.4 592.6L2577.4 622.2Q2577.4 632.2 2580.4 637.7Q2583.4 643.2 2591.8 643.2Q2598.6 643.2 2605.2 638.6L2616.6 661.2Z">
</path>
</g>
<defs>
<linearGradient id="linear_fill_2_3_0" x1="500" y1="728" x2="500" y2="472" gradientUnits="userSpaceOnUse">
<stop offset="0" stop-color="#1974D2"  />
<stop offset="1" stop-color="#66B3FF"  />
</linearGradient>
<filter id="filter_2_6" x="475" y="651" width="100" height="24" filterUnits="userSpaceOnUse" color-interpolation-filters="sRGB">
<feFlood flood-opacity="0" result="feFloodId_2_6"/>
<feGaussianBlur in="feFloodId_2_6" stdDeviation_bg="2" type="BackgroundImage" />
<feComposite in2="SourceAlpha" operator="in" result="background_Blur_2_6"/>
<feBlend mode="normal" in="SourceGraphic" in2="background_Blur_2_6" result="shape_2_6"/>
</filter>
</defs>
</svg>
